<svg xmlns="http://www.w3.org/2000/svg" width="24" height="24" viewBox="0 0 24 24">
    <path fill="#004A9D" fill-rule="evenodd" d="M3.5 14c.276 0 .5.224.5.5V20h16v-5.5c0-.276.224-.5.5-.5h1c.276 0 .5.224.5.5v6c0 .828-.672 1.5-1.5 1.5h-17c-.828 0-1.5-.672-1.5-1.5v-6c0-.276.224-.5.5-.5h1zm9-12c.276 0 .5.21.5.467v11.925l4.398-4.243.071-.058c.175-.119.408-.119.584 0l.07.058.726.712.06.07c.121.172.121.401 0 .573l-.06.07-6.487 6.277-.063.053c-.067.048-.143.078-.22.09l-.08.006c-.104 0-.21-.032-.298-.096l-.063-.053-6.487-6.277c-.179-.175-.199-.446-.06-.643l.06-.07.725-.712c.178-.174.454-.193.654-.058l.072.058L11 14.39V2.467c0-.258.223-.467.5-.467h1z"/>
</svg>
